<svg width="20" height="13" viewBox="0 0 20 13" fill="none" xmlns="http://www.w3.org/2000/svg">
<path fill-rule="evenodd" clip-rule="evenodd" d="M0 6.5C0 6.30848 0.0752501 6.12481 0.209196 5.98938C0.343142 5.85396 0.524812 5.77788 0.71424 5.77788H17.5603L13.0649 1.23429C12.9308 1.0987 12.8554 0.914793 12.8554 0.723033C12.8554 0.531273 12.9308 0.347366 13.0649 0.211771C13.199 0.0761763 13.3809 4.51803e-09 13.5706 0C13.7602 -4.51803e-09 13.9421 0.0761763 14.0762 0.211771L19.7902 5.98874C19.8567 6.05582 19.9095 6.1355 19.9455 6.22324C19.9815 6.31097 20 6.40502 20 6.5C20 6.59498 19.9815 6.68903 19.9455 6.77677C19.9095 6.8645 19.8567 6.94418 19.7902 7.01126L14.0762 12.7882C13.9421 12.9238 13.7602 13 13.5706 13C13.3809 13 13.199 12.9238 13.0649 12.7882C12.9308 12.6526 12.8554 12.4687 12.8554 12.277C12.8554 12.0852 12.9308 11.9013 13.0649 11.7657L17.5603 7.22212H0.71424C0.524812 7.22212 0.343142 7.14604 0.209196 7.01062C0.0752501 6.87519 0 6.69152 0 6.5Z" fill="white"/>
</svg>
