<svg width="13" height="8" viewBox="0 0 13 8" fill="none" xmlns="http://www.w3.org/2000/svg">
<path fill-rule="evenodd" clip-rule="evenodd" d="M0.236481 4C0.236481 3.88214 0.281326 3.76911 0.36115 3.68577C0.440975 3.60244 0.54924 3.55562 0.662129 3.55562H10.7015L8.02244 0.759566C7.94252 0.676123 7.89761 0.56295 7.89761 0.444943C7.89761 0.326937 7.94252 0.213764 8.02244 0.130321C8.10237 0.0468777 8.21077 2.78032e-09 8.3238 0C8.43683 -2.78032e-09 8.54523 0.0468777 8.62516 0.130321L12.0303 3.68538C12.07 3.72666 12.1014 3.7757 12.1229 3.82968C12.1444 3.88367 12.1554 3.94155 12.1554 4C12.1554 4.05845 12.1444 4.11633 12.1229 4.17032C12.1014 4.22431 12.07 4.27334 12.0303 4.31462L8.62516 7.86968C8.54523 7.95312 8.43683 8 8.3238 8C8.21077 8 8.10237 7.95312 8.02244 7.86968C7.94252 7.78624 7.89761 7.67306 7.89761 7.55506C7.89761 7.43705 7.94252 7.32388 8.02244 7.24043L10.7015 4.44438H0.662129C0.54924 4.44438 0.440975 4.39756 0.36115 4.31423C0.281326 4.23089 0.236481 4.11786 0.236481 4Z" fill="#1B365D"/>
</svg>
